<svg width="24" height="24" viewBox="0 0 24 24" fill="none" xmlns="http://www.w3.org/2000/svg">
<mask id="mask0_2275_29585" style="mask-type:alpha" maskUnits="userSpaceOnUse" x="0" y="0" width="24" height="24">
<path fill-rule="evenodd" clip-rule="evenodd" d="M13.7592 14.9308C12.8471 15.6028 11.7199 16 10.5 16C7.46243 16 5 13.5376 5 10.5C5 7.46243 7.46243 5 10.5 5C13.5376 5 16 7.46243 16 10.5C16 11.9571 15.4334 13.2818 14.5085 14.2659L14.8284 14.5858L15.4999 14.4999L18.2499 17.2499C18.6642 17.6642 18.6641 18.3358 18.2499 18.75C17.8357 19.1642 17.1641 19.1641 16.7499 18.7499L13.9999 15.9999L14.1213 15.2929L13.7592 14.9308ZM14 10.5C14 12.433 12.433 14 10.5 14C8.567 14 7 12.433 7 10.5C7 8.567 8.567 7 10.5 7C12.433 7 14 8.567 14 10.5Z" fill="black"/>
</mask>
<g mask="url(#mask0_2275_29585)">
<rect width="24" height="24" fill="#8C8C8C"/>
</g>
</svg>
